<svg xmlns="http://www.w3.org/2000/svg" width="50.507" height="68.594" viewBox="0 0 50.507 68.594">
    <g>
        <path fill="#4668d9" d="M38.135 0a25.282 25.282 0 0 0-25.252 25.254 24.633 24.633 0 0 0 2.208 10.308c6.314 13.816 18.419 28.4 21.98 32.544a1.406 1.406 0 0 0 2.13 0c3.559-4.14 15.664-18.727 21.98-32.544a24.623 24.623 0 0 0 2.209-10.308A25.284 25.284 0 0 0 38.135 0zm0 38.371a13.118 13.118 0 1 1 13.118-13.118 13.133 13.133 0 0 1-13.118 13.118z" transform="translate(-12.883)"/>
    </g>
</svg>
