<svg xmlns="http://www.w3.org/2000/svg" id="bath" width="28.491" height="16.96" viewBox="0 0 28.491 16.96">
    <!-- <defs>
        <style>
            .cls-1{fill:#4668d9}
        </style>
    </defs> -->
    <path id="Path_1" d="M168.447 140.143a.447.447 0 0 0 .447-.447v-1.568a.447.447 0 1 0-.894 0v1.572a.447.447 0 0 0 .447.443z" class="cls-1" transform="translate(-159.376 -136.755)"/>
    <path id="Path_2" d="M330.447 141.861a.447.447 0 0 0 .447-.447v-1.853a.447.447 0 1 0-.894 0v1.853a.447.447 0 0 0 .447.447z" class="cls-1" transform="translate(-311.028 -138.097)"/>
    <path id="Path_3" d="M222.447 144.244a.447.447 0 0 0 .447-.447v-2.236a.447.447 0 1 0-.894 0v2.239a.447.447 0 0 0 .447.444z" class="cls-1" transform="translate(-209.927 -139.969)"/>
    <path id="Path_4" d="M276.447 126.581a.447.447 0 0 0 .447-.447v-2.494a.447.447 0 1 0-.894 0v2.494a.447.447 0 0 0 .447.447z" class="cls-1" transform="translate(-260.477 -123.193)"/>
    <path id="Path_5" d="M134.525 380.555a.815.815 0 0 0 .769-.555h-1.538a.815.815 0 0 0 .769.555z" class="cls-1" transform="translate(-127.32 -363.595)"/>
    <path id="Path_6" d="M354.938 380.555a.815.815 0 0 0 .769-.555h-1.538a.815.815 0 0 0 .769.555z" class="cls-1" transform="translate(-333.653 -363.595)"/>
    <path id="Path_7" d="M64.188 245.657a2.251 2.251 0 0 0 2.107 1.456h16.647a2.251 2.251 0 0 0 2.107-1.456L87 239H62.241z" class="cls-1" transform="translate(-60.373 -231.602)"/>
    <path id="Path_8" d="M61.171 214H33.319a.311.311 0 0 0-.319.309v.394h28.491v-.394a.311.311 0 0 0-.319-.309z" class="cls-1" transform="translate(-33 -208.197)"/>
</svg>
