<svg xmlns="http://www.w3.org/2000/svg" id="bed" width="22.848" height="14.522" viewBox="0 0 22.848 14.522">
    <!-- <defs>
        <style>
            .cls-1{fill:#4668d9}
        </style>
    </defs> -->
    <path id="Path_9" d="M44.076 92.377a2.165 2.165 0 0 1 2.163-2.163h4.855a2.162 2.162 0 0 1 1.806.974 2.162 2.162 0 0 1 1.806-.974h4.855a2.165 2.165 0 0 1 2.163 2.163v.1h.541v-2.11a2.376 2.376 0 0 0-2.373-2.373H45.908a2.376 2.376 0 0 0-2.373 2.373v2.109h.541v-.1z" class="cls-1" transform="translate(-41.475 -87.994)"/>
    <path id="Path_10" d="M21.939 204.076H.909a.91.91 0 0 0-.909.909v5.276a.91.91 0 0 0 .909.909h.378l-.447 1.262a.5.5 0 1 0 .952.337l.567-1.6h18.13l.567 1.6a.5.5 0 0 0 .952-.337l-.447-1.262h.378a.91.91 0 0 0 .909-.909v-5.276a.91.91 0 0 0-.909-.909z" class="cls-1" transform="translate(0 -198.584)"/>
    <path id="Path_11" d="M256.416 156.262a1.154 1.154 0 0 0-1.153 1.153v.1h7.16v-.1a1.154 1.154 0 0 0-1.153-1.153z" class="cls-1" transform="translate(-243.186 -153.032)"/>
    <path id="Path_12" d="M77.478 156.262a1.154 1.154 0 0 0-1.153 1.153v.1h7.16v-.1a1.154 1.154 0 0 0-1.153-1.153z" class="cls-1" transform="translate(-72.714 -153.032)"/>
</svg>
