<svg xmlns="http://www.w3.org/2000/svg" id="car-fill-from-frontal-view" width="18.041" height="15.723" viewBox="0 0 18.041 15.723">
    <!-- <defs>
        <style>
            .cls-1{fill:#4668d9}
        </style>
    </defs> -->
    <path id="Path_13" d="M750.615 776.131v-1.069H747.9v1.069a1.359 1.359 0 1 0 2.715 0z" class="cls-1" transform="translate(-734.018 -761.835)"/>
    <path id="Path_14" d="M80.4 776.131v-1.069h-2.7v1.069a1.354 1.354 0 1 0 2.7 0z" class="cls-1" transform="translate(-76.258 -761.835)"/>
    <path id="Path_15" d="M18.041 73.461v-3.749a2.086 2.086 0 0 0-1.641-2.073l-1.479-3.818a2.016 2.016 0 0 0-2.021-1.359H5.128A2.026 2.026 0 0 0 3.1 63.821l-1.476 3.818A2.077 2.077 0 0 0 0 69.712v3.749a1.115 1.115 0 0 0 1.114 1.114h15.814a1.113 1.113 0 0 0 1.113-1.114zM3.025 71.826h-.007a1.286 1.286 0 0 1-.007-2.571h.022a1.286 1.286 0 0 1-.007 2.571zm6-4.223H4.378a.57.57 0 0 1-.525-.793l.78-1.843c.117-.291.343-.733.837-.741h7.085c.486.007.609.28.837.741l.78 1.843a.57.57 0 0 1-.525.793zm5.908 4.315h-.007a1.286 1.286 0 0 1-.006-2.571h.022a1.286 1.286 0 0 1-.009 2.571z" class="cls-1" transform="translate(0 -62.462)"/>
</svg>
