<svg xmlns="http://www.w3.org/2000/svg" width="24" height="24" viewBox="0 0 24 24">
    <!-- <defs>
        <style>
            .cls-3{fill:#4668d9}
        </style>
    </defs> -->
    <!-- <g id="home" style="isolation:isolate"> -->
        <path id="Rectangle_474" d="M0 0H4V7H0z" class="cls-3" transform="translate(10 14)"/>
        <path id="Path_1228" d="M20.42 10.18L12.71 2.3a1 1 0 0 0-1.42 0l-7.71 7.89A2 2 0 0 0 3 11.62V20a2 2 0 0 0 1.89 2H8v-9a1 1 0 0 1 1-1h6a1 1 0 0 1 1 1v9h3.11A2 2 0 0 0 21 20v-8.38a2.07 2.07 0 0 0-.58-1.44z" class="cls-3"/>
    <!-- </g> -->
</svg>
