<svg xmlns="http://www.w3.org/2000/svg" width="16" height="16" viewBox="0 0 16 16">
    <!-- <defs>
        <style>
            .cls-2{fill:#fff}
        </style>
    </defs> -->
    <!-- <g id="options" transform="translate(-.025 -.025)"> -->
        <path id="Path_1287" d="M5.681 10.141V2.668a.668.668 0 1 0-1.337 0v7.472a2.005 2.005 0 0 0 0 3.769v.791a.668.668 0 1 0 1.337 0v-.79a2.005 2.005 0 0 0 0-3.769z" class="cls-2" transform="translate(-.998 -.658)"/>
        <path id="Path_1288" d="M19.018 9.352a2.005 2.005 0 0 0-1.337-1.885v-4.8a.668.668 0 0 0-1.337 0v4.8a2.005 2.005 0 0 0 0 3.769V14.7a.668.668 0 1 0 1.337 0v-3.463a2.005 2.005 0 0 0 1.337-1.885z" class="cls-2" transform="translate(-4.977 -.658)"/>
        <path id="Path_1289" d="M13.01 4a2.005 2.005 0 1 0-2.673 1.885V14.7a.668.668 0 1 0 1.337 0V5.887A2.005 2.005 0 0 0 13.01 4z" class="cls-2" transform="translate(-2.98 -.655)"/>
    <!-- </g> -->
</svg>
